<?xml version="1.0" standalone="no"?>
<!DOCTYPE svg PUBLIC "-//W3C//DTD SVG 20010904//EN"
 "http://www.w3.org/TR/2001/REC-SVG-20010904/DTD/svg10.dtd">
<svg version="1.0" xmlns="http://www.w3.org/2000/svg"
 width="225.000000pt" height="225.000000pt" viewBox="0 0 225.000000 225.000000"
 preserveAspectRatio="xMidYMid meet">

<g transform="translate(0.000000,225.000000) scale(0.100000,-0.100000)"
fill="#000000" stroke="none">
<path d="M0 1125 l0 -1125 1125 0 1125 0 0 1125 0 1125 -1125 0 -1125 0 0
-1125z m1245 841 c170 -36 325 -173 396 -351 l24 -60 3 -587 3 -588 -546 0
-546 0 3 578 3 577 27 74 c96 264 365 415 633 357z"/>
<path d="M1021 1935 c-180 -40 -325 -171 -383 -345 -22 -63 -23 -79 -26 -622
l-3 -558 159 0 c156 0 160 1 186 25 15 14 34 25 42 25 8 0 14 -10 14 -25 0
-23 3 -25 50 -25 50 0 50 0 50 33 0 26 7 39 32 57 l31 23 -7 -33 c-5 -27 -2
-38 16 -57 21 -22 81 -33 75 -14 -1 5 3 9 8 9 6 0 9 -4 8 -9 -2 -5 77 -9 182
-9 l185 0 0 548 c0 591 -1 597 -55 708 -33 68 -114 157 -181 200 -108 69 -261
97 -383 69z m99 -235 c0 -11 -7 -20 -15 -20 -23 0 -35 -34 -35 -99 0 -62 -13
-81 -55 -81 -13 0 -11 6 9 33 15 19 26 47 26 64 0 33 17 91 33 111 15 19 37
14 37 -8z m65 -11 c18 -34 11 -54 -9 -26 -7 9 -21 17 -30 17 -9 0 -16 8 -16
20 0 32 37 25 55 -11z m-17 -43 c2 -9 -3 -16 -12 -16 -8 0 -18 -4 -21 -10 -3
-5 0 -8 7 -5 7 3 18 1 25 -3 18 -11 -6 -84 -29 -90 -34 -9 -18 -23 19 -16 43
8 42 2 -10 -84 -33 -55 -119 -128 -137 -117 -5 3 -10 24 -10 47 0 33 3 39 16
34 14 -5 15 -4 4 9 -18 22 -30 18 -30 -10 0 -15 -6 -38 -14 -54 -17 -32 -100
-111 -117 -111 -7 0 -33 -13 -58 -29 -49 -31 -116 -48 -125 -32 -4 5 -1 13 5
17 8 5 8 9 -1 14 -8 5 0 11 20 19 28 9 35 8 46 -7 10 -14 15 -15 26 -4 7 7 9
12 3 10 -5 -1 -21 5 -35 16 l-25 18 38 -7 c37 -6 41 -4 93 52 30 32 63 68 74
79 11 12 18 28 15 36 -3 8 5 30 18 49 17 26 30 34 53 34 16 0 43 10 61 23 28
20 31 26 23 48 -17 44 -12 91 11 108 25 17 62 7 67 -18z m42 -56 c0 -9 16 -32
36 -53 24 -24 31 -37 21 -37 -26 0 -47 11 -47 26 0 7 -6 17 -14 21 -12 7 -21
46 -17 78 2 15 21 -17 21 -35z m24 -99 c3 -5 -13 -47 -36 -92 -30 -60 -61
-103 -109 -151 -68 -69 -100 -83 -127 -56 -8 8 -12 9 -12 1 0 -12 27 -43 37
-43 4 0 26 11 49 25 52 30 120 117 165 208 22 43 36 62 41 54 6 -9 8 -9 8 1 0
6 4 12 8 12 5 0 14 -95 22 -210 15 -235 9 -572 -11 -596 -7 -9 -8 -19 -3 -27
5 -6 7 -34 4 -62 l-6 -50 -13 28 c-11 21 -12 32 -3 52 18 40 15 40 -34 -4 -72
-63 -134 -101 -168 -102 -17 0 -40 -2 -51 -4 -20 -4 -20 -1 -14 78 4 45 11
153 15 241 7 152 8 160 34 190 38 45 99 156 85 156 -3 0 -14 -18 -25 -40 -33
-65 -88 -120 -120 -120 -34 0 -56 24 -81 89 -36 97 -19 160 39 144 19 -4 22
-1 22 21 0 39 29 91 43 77 7 -7 6 -16 -6 -29 -9 -10 -17 -27 -16 -38 0 -16 1
-17 7 -3 4 10 38 41 76 70 51 39 81 73 110 122 38 63 57 79 70 58z m71 -37
c104 -160 111 -193 13 -61 -72 96 -74 100 -52 95 10 -2 27 -17 39 -34z m-5
-62 c0 -5 15 -26 34 -48 25 -29 32 -44 25 -55 -5 -8 -9 -36 -9 -62 0 -50 -29
-181 -38 -173 -5 5 -31 266 -32 319 0 15 5 27 10 27 6 0 10 -4 10 -8z m130
-143 c31 -39 35 -41 71 -35 22 3 39 4 39 2 0 -2 -14 -13 -32 -24 -32 -20 -32
-20 -82 -2 -63 25 -69 31 -61 69 9 42 25 39 65 -10z m157 -86 c4 -12 -35 -29
-44 -19 -8 8 18 37 30 33 6 -2 12 -8 14 -14z m-205 -150 l2 -158 3 153 c3 144
5 152 24 152 12 0 23 -10 30 -27 13 -34 14 -177 4 -380 -6 -131 -11 -163 -22
-163 -10 0 -12 6 -8 21 4 12 1 27 -8 37 -9 9 -17 37 -20 62 -3 42 -4 41 -5
-12 -1 -32 -6 -58 -11 -58 -5 0 -23 11 -38 24 -29 25 -29 25 -28 128 1 57 8
123 14 148 7 24 10 54 7 64 -6 24 33 166 46 166 4 0 9 -71 10 -157z m-133
-504 c22 -29 22 -31 6 -56 -14 -20 -19 -23 -26 -12 -8 13 -13 99 -6 99 2 0 13
-14 26 -31z"/>
<path d="M980 1458 c-22 -23 -44 -58 -37 -58 2 0 18 18 36 40 35 43 35 54 1
18z"/>
<path d="M1199 1338 c-40 -86 -134 -205 -194 -244 -32 -21 -52 -13 -64 28 -7
24 -9 27 -10 11 -2 -40 17 -73 42 -73 33 0 62 24 128 107 55 69 136 209 126
219 -2 2 -14 -19 -28 -48z"/>
<path d="M1210 1270 c0 -8 -12 -88 -26 -179 -39 -250 -95 -452 -145 -522 -27
-38 -24 -47 4 -12 64 77 94 164 126 358 31 189 53 356 47 363 -3 3 -6 -1 -6
-8z"/>
</g>
</svg>
